<svg width="48" height="48" viewBox="0 0 48 48" fill="none" xmlns="http://www.w3.org/2000/svg">
<path d="M47.6254 33.456C47.5733 31.4519 47.3896 29.4699 47.0741 27.51C46.6963 25.1629 46.1295 23.0696 45.3739 21.2301C44.7443 19.898 44.0201 18.9148 43.2015 18.2804C42.4459 17.7095 41.4385 17.4241 40.1791 17.4241C39.1716 17.4241 38.2271 17.6461 37.3455 18.0901C36.527 18.5976 35.8658 19.2002 35.3621 19.898C36.2436 21.7375 36.9677 23.8308 37.5345 26.1779C38.1641 28.5249 38.479 30.9354 38.479 33.4093C38.479 36.5809 37.9123 39.0231 36.7788 40.7358C35.6454 42.5119 33.8823 43.4 31.4895 43.4L29.7894 43.4L28.4671 30.3645C27.9634 25.2264 26.5781 21.2935 24.3112 18.5659C22.1074 15.9017 18.896 14.5696 14.6772 14.5696C9.82865 14.5696 6.17652 16.3774 3.72077 19.9931C1.67346 23.1411 0.502009 27.2643 0.206424 32.3627C0.0702579 31.3204 -1.10403e-06 30.2572 -1.05683e-06 29.1774C-4.73158e-07 15.8246 10.7452 5 24 5C37.2548 5 48 15.8246 48 29.1774C48 30.6375 47.8715 32.0673 47.6254 33.456Z" fill="white"/>
<path d="M9.67122 40.0698C9.35639 38.5474 9.19897 36.8664 9.19897 35.0268C9.19897 31.982 9.70271 29.7619 10.7102 28.3663C11.7177 27.0342 13.1345 26.3682 14.9605 26.3682C16.7866 26.3682 18.1089 27.0342 18.9275 28.3663C19.809 29.6984 20.3757 31.6331 20.6276 34.1705L21.4777 43.4L10.9935 43.4C10.4898 42.7022 10.049 41.5922 9.67122 40.0698Z" fill="white"/>
</svg>
